HIERARCHY
ROOT Root
{
  OFFSET 0.0 0.0 0.0
  CHANNELS 6 Xposition Yposition Zposition Zrotation Yrotation Xrotation
  JOINT Hips
  {
    OFFSET 0.0 100.0 0.0
    CHANNELS 6 Xposition Yposition Zposition Zrotation Yrotation Xrotation
    JOINT Spine1
    {
      OFFSET 5.003913 -0.037094 -0.013727
      CHANNELS 3 Zrotation Yrotation Xrotation
      JOINT Spine2
      {
        OFFSET 7.125363 -1e-06 0.0
        CHANNELS 3 Zrotation Yrotation Xrotation
        JOINT Chest
        {
          OFFSET 7.594027 1e-06 0.0
          CHANNELS 3 Zrotation Yrotation Xrotation
          JOINT Neck1
          {
            OFFSET 26.313086 -0.460272 -0.181672
            CHANNELS 3 Zrotation Yrotation Xrotation
            JOINT Neck2
            {
              OFFSET 8.045911 0.0 0.0
              CHANNELS 3 Zrotation Yrotation Xrotation
              JOINT Head
              {
                OFFSET 6.432774 0.0 0.0
                CHANNELS 3 Zrotation Yrotation Xrotation
                JOINT HeadEnd
                {
                  OFFSET 16.169773 0.06451 0.00362
                  CHANNELS 3 Zrotation Yrotation Xrotation
                }
                JOINT Jaw
                {
                  OFFSET 0.108741 3.12938 0.002639
                  CHANNELS 3 Zrotation Yrotation Xrotation
                }
                JOINT LeftEye
                {
                  OFFSET 4.45173 8.166359 3.206392
                  CHANNELS 3 Zrotation Yrotation Xrotation
                }
                JOINT RightEye
                {
                  OFFSET 4.436895 8.135758 -3.222429
                  CHANNELS 3 Zrotation Yrotation Xrotation
                }
              }
            }
          }
          JOINT LeftShoulder
          {
            OFFSET 23.218927 5.195579 1.621656
            CHANNELS 3 Zrotation Yrotation Xrotation
            JOINT LeftArm
            {
              OFFSET 15.902118 2e-06 -2e-06
              CHANNELS 3 Zrotation Yrotation Xrotation
              JOINT LeftForeArm
              {
                OFFSET 28.739307 0.0 -1e-06
                CHANNELS 3 Zrotation Yrotation Xrotation
                JOINT LeftHand
                {
                  OFFSET 27.093981 -4e-06 0.0
                  CHANNELS 3 Zrotation Yrotation Xrotation
                  JOINT LeftHandThumb1
                  {
                    OFFSET 2.276781 3.380274 0.83384
                    CHANNELS 3 Zrotation Yrotation Xrotation
                    JOINT LeftHandThumb2
                    {
                      OFFSET 4.705309 -1e-06 -1e-06
                      CHANNELS 3 Zrotation Yrotation Xrotation
                      JOINT LeftHandThumb3
                      {
                        OFFSET 2.798515 0.0 3e-06
                        CHANNELS 3 Zrotation Yrotation Xrotation
                        JOINT LeftHandThumbEnd
                        {
                          OFFSET 3.180793 4e-06 -4e-06
                          CHANNELS 3 Zrotation Yrotation Xrotation
                        }
                      }
                    }
                  }
                  JOINT LeftHandIndex1
                  {
                    OFFSET 3.247786 2.352677 0.137192
                    CHANNELS 3 Zrotation Yrotation Xrotation
                    JOINT LeftHandIndex2
                    {
                      OFFSET 6.367095 1e-06 0.0
                      CHANNELS 3 Zrotation Yrotation Xrotation
                      JOINT LeftHandIndex3
                      {
                        OFFSET 3.662364 0.0 0.0
                        CHANNELS 3 Zrotation Yrotation Xrotation
                        JOINT LeftHandIndex4
                        {
                          OFFSET 2.329242 4e-06 -4e-06
                          CHANNELS 3 Zrotation Yrotation Xrotation
                          JOINT LeftHandIndexEnd
                          {
                            OFFSET 2.767823 1e-06 0.0
                            CHANNELS 3 Zrotation Yrotation Xrotation
                          }
                        }
                      }
                    }
                  }
                  JOINT LeftHandMiddle1
                  {
                    OFFSET 3.163612 0.945023 -0.406112
                    CHANNELS 3 Zrotation Yrotation Xrotation
                    JOINT LeftHandMiddle2
                    {
                      OFFSET 6.276789 3e-06 0.0
                      CHANNELS 3 Zrotation Yrotation Xrotation
                      JOINT LeftHandMiddle3
                      {
                        OFFSET 4.35652 -1e-06 4e-06
                        CHANNELS 3 Zrotation Yrotation Xrotation
                        JOINT LeftHandMiddle4
                        {
                          OFFSET 2.996877 0.0 8e-06
                          CHANNELS 3 Zrotation Yrotation Xrotation
                          JOINT LeftHandMiddleEnd
                          {
                            OFFSET 2.323256 3e-06 -4e-06
                            CHANNELS 3 Zrotation Yrotation Xrotation
                          }
                        }
                      }
                    }
                  }
                  JOINT LeftHandRing1
                  {
                    OFFSET 2.882606 -0.309162 0.107445
                    CHANNELS 3 Zrotation Yrotation Xrotation
                    JOINT LeftHandRing2
                    {
                      OFFSET 6.033198 0.0 4e-06
                      CHANNELS 3 Zrotation Yrotation Xrotation
                      JOINT LeftHandRing3
                      {
                        OFFSET 4.350578 3e-06 0.0
                        CHANNELS 3 Zrotation Yrotation Xrotation
                        JOINT LeftHandRing4
                        {
                          OFFSET 2.651321 2e-06 -7e-06
                          CHANNELS 3 Zrotation Yrotation Xrotation
                          JOINT LeftHandRingEnd
                          {
                            OFFSET 1.937663 1e-06 -4e-06
                            CHANNELS 3 Zrotation Yrotation Xrotation
                          }
                        }
                      }
                    }
                  }
                  JOINT LeftHandPinky1
                  {
                    OFFSET 2.865315 -1.525436 0.575687
                    CHANNELS 3 Zrotation Yrotation Xrotation
                    JOINT LeftHandPinky2
                    {
                      OFFSET 5.54936 1e-06 -8e-06
                      CHANNELS 3 Zrotation Yrotation Xrotation
                      JOINT LeftHandPinky3
                      {
                        OFFSET 3.070974 0.0 -4e-06
                        CHANNELS 3 Zrotation Yrotation Xrotation
                        JOINT LeftHandPinky4
                        {
                          OFFSET 1.549672 1e-06 0.0
                          CHANNELS 3 Zrotation Yrotation Xrotation
                          JOINT LeftHandPinkyEnd
                          {
                            OFFSET 1.952123 0.0 0.0
                            CHANNELS 3 Zrotation Yrotation Xrotation
                          }
                        }
                      }
                    }
                  }
                }
              }
            }
          }
          JOINT RightShoulder
          {
            OFFSET 23.161716 5.296122 -1.380114
            CHANNELS 3 Zrotation Yrotation Xrotation
            JOINT RightArm
            {
              OFFSET -16.027195 -2e-06 1.1e-05
              CHANNELS 3 Zrotation Yrotation Xrotation
              JOINT RightForeArm
              {
                OFFSET -28.736639 4e-06 2e-06
                CHANNELS 3 Zrotation Yrotation Xrotation
                JOINT RightHand
                {
                  OFFSET -27.133619 6e-06 0.0
                  CHANNELS 3 Zrotation Yrotation Xrotation
                  JOINT RightHandThumb1
                  {
                    OFFSET -2.274328 -3.351035 -0.83067
                    CHANNELS 3 Zrotation Yrotation Xrotation
                    JOINT RightHandThumb2
                    {
                      OFFSET -4.703594 -3e-06 2e-06
                      CHANNELS 3 Zrotation Yrotation Xrotation
                      JOINT RightHandThumb3
                      {
                        OFFSET -2.794935 -4e-06 -3e-06
                        CHANNELS 3 Zrotation Yrotation Xrotation
                        JOINT RightHandThumbEnd
                        {
                          OFFSET -3.183852 4e-06 1e-06
                          CHANNELS 3 Zrotation Yrotation Xrotation
                        }
                      }
                    }
                  }
                  JOINT RightHandIndex1
                  {
                    OFFSET -3.253496 -2.33755 -0.127667
                    CHANNELS 3 Zrotation Yrotation Xrotation
                    JOINT RightHandIndex2
                    {
                      OFFSET -6.344434 0.0 0.0
                      CHANNELS 3 Zrotation Yrotation Xrotation
                      JOINT RightHandIndex3
                      {
                        OFFSET -3.654871 0.0 -8e-06
                        CHANNELS 3 Zrotation Yrotation Xrotation
                        JOINT RightHandIndex4
                        {
                          OFFSET -2.327586 -1e-06 0.0
                          CHANNELS 3 Zrotation Yrotation Xrotation
                          JOINT RightHandIndexEnd
                          {
                            OFFSET -2.770001 3e-06 8e-06
                            CHANNELS 3 Zrotation Yrotation Xrotation
                          }
                        }
                      }
                    }
                  }
                  JOINT RightHandMiddle1
                  {
                    OFFSET -3.168223 -0.944764 0.411762
                    CHANNELS 3 Zrotation Yrotation Xrotation
                    JOINT RightHandMiddle2
                    {
                      OFFSET -6.266691 -1e-06 -4e-06
                      CHANNELS 3 Zrotation Yrotation Xrotation
                      JOINT RightHandMiddle3
                      {
                        OFFSET -4.348901 0.0 0.0
                        CHANNELS 3 Zrotation Yrotation Xrotation
                        JOINT RightHandMiddle4
                        {
                          OFFSET -3.00024 2e-06 -4e-06
                          CHANNELS 3 Zrotation Yrotation Xrotation
                          JOINT RightHandMiddleEnd
                          {
                            OFFSET -2.321477 -4e-06 -4e-06
                            CHANNELS 3 Zrotation Yrotation Xrotation
                          }
                        }
                      }
                    }
                  }
                  JOINT RightHandRing1
                  {
                    OFFSET -2.885654 0.293261 -0.119232
                    CHANNELS 3 Zrotation Yrotation Xrotation
                    JOINT RightHandRing2
                    {
                      OFFSET -6.032835 -1e-06 -4e-06
                      CHANNELS 3 Zrotation Yrotation Xrotation
                      JOINT RightHandRing3
                      {
                        OFFSET -4.33881 0.0 -4e-06
                        CHANNELS 3 Zrotation Yrotation Xrotation
                        JOINT RightHandRing4
                        {
                          OFFSET -2.654903 -4e-06 -4e-06
                          CHANNELS 3 Zrotation Yrotation Xrotation
                          JOINT RightHandRingEnd
                          {
                            OFFSET -1.935122 0.0 4e-06
                            CHANNELS 3 Zrotation Yrotation Xrotation
                          }
                        }
                      }
                    }
                  }
                  JOINT RightHandPinky1
                  {
                    OFFSET -2.866241 1.503904 -0.60527
                    CHANNELS 3 Zrotation Yrotation Xrotation
                    JOINT RightHandPinky2
                    {
                      OFFSET -5.553177 -2e-06 0.0
                      CHANNELS 3 Zrotation Yrotation Xrotation
                      JOINT RightHandPinky3
                      {
                        OFFSET -3.062664 -1e-06 -4e-06
                        CHANNELS 3 Zrotation Yrotation Xrotation
                        JOINT RightHandPinky4
                        {
                          OFFSET -1.546529 2e-06 4e-06
                          CHANNELS 3 Zrotation Yrotation Xrotation
                          JOINT RightHandPinkyEnd
                          {
                            OFFSET -1.952341 0.0 -4e-06
                            CHANNELS 3 Zrotation Yrotation Xrotation
                          }
                        }
                      }
                    }
                  }
                }
              }
            }
          }
        }
      }
    }
    JOINT LeftLeg
    {
      OFFSET -8.443107 2.567604 10.043214
      CHANNELS 3 Zrotation Yrotation Xrotation
      JOINT LeftShin
      {
        OFFSET 43.229198 1e-06 -1e-06
        CHANNELS 3 Zrotation Yrotation Xrotation
        JOINT LeftFoot
        {
          OFFSET 42.298611 1e-06 1e-06
          CHANNELS 3 Zrotation Yrotation Xrotation
          JOINT LeftToeBase
          {
            OFFSET 14.165858 1e-06 0.0
            CHANNELS 3 Zrotation Yrotation Xrotation
            JOINT LeftToeEnd
            {
              OFFSET 6.7141 -0.234461 0.0
              CHANNELS 3 Zrotation Yrotation Xrotation
            }
          }
        }
      }
    }
    JOINT RightLeg
    {
      OFFSET -8.303923 2.592729 -10.047278
      CHANNELS 3 Zrotation Yrotation Xrotation
      JOINT RightShin
      {
        OFFSET -43.369682 0.0 1e-06
        CHANNELS 3 Zrotation Yrotation Xrotation
        JOINT RightFoot
        {
          OFFSET -42.260784 4e-06 2e-06
          CHANNELS 3 Zrotation Yrotation Xrotation
          JOINT RightToeBase
          {
            OFFSET -14.222245 -2e-06 -1e-06
            CHANNELS 3 Zrotation Yrotation Xrotation
            JOINT RightToeEnd
            {
              OFFSET -6.660062 0.232574 -2e-06
              CHANNELS 3 Zrotation Yrotation Xrotation
            }
          }
        }
      }
    }
  }
}
MOTION
Frames: 4
Frame Time: 0.03333333333333333
0.0 0.0 0.0 0.0 -0.0 0.0 0.811479 96.941338 3.425651 87.952736 -1.890186 84.413597 17.500395 0.332487 -0.077439 -3.337799 -0.497671 -1.223362 30.816458 1.070281 -3.548607 31.060774 0.726619 3.242505 -2.56732 -0.775213 -0.600487 -52.251709 -1.073793 0.225734 5e-06 0.0 -0.0 0.115028 -0.13196 0.345769 0.499122 -0.25957 0.43449 0.523411 -0.009422 0.249234 5.987881 -69.118813 -1.284568 97.268654 -41.249603 -100.394653 149.769333 -4.088588 0.67111 16.701326 1.966449 -3.915971 17.636629 -26.322737 52.411205 -19.466663 -14.395597 29.410395 0.0 -8.774822 -4e-06 15.306879 -17.087442 6.488105 -0.609777 -1.795654 -3.889328 -4.807087 -11.046809 -2.937849 6e-06 -20.976019 1e-06 -5.019965 -25.033552 -4.031882 6e-06 1e-06 -1e-06 -10.634535 -5.686969 -3.565587 10.573275 -17.922949 -3.113901 0.0 -13.821209 1e-06 -0.50178 -31.181505 -4.027012 -11.773868 -59.459427 7.695026 -13.982714 -7.150196 -2.875045 13.772729 -8.401491 -3.21824 0.347732 -34.211555 0.771656 -0.963029 -17.73337 2.621021 -1e-06 -2e-06 0.0 -17.346416 -20.095215 -4.201784 21.757559 -1.638376 3.866428 2e-06 -6.338824 0.0 -1.697586 -22.591743 -6.194007 -1e-06 -4e-06 -1e-06 163.697693 -78.437653 24.947922 111.784439 -38.276539 -61.973518 141.283264 -0.226039 -0.382794 8.91291 -5.085287 -12.580211 22.182108 -20.375895 49.933327 -16.701818 -16.74353 28.476538 -3e-06 -12.690601 -0.0 16.73653 -16.810818 2.607641 -0.10592 -1.513858 -4.275881 -5.03904 -5.612871 -2.953557 6e-06 -11.020521 -3e-06 -6.111297 -15.895334 -3.840471 -2e-06 0.0 1e-06 -10.283369 -5.680289 -4.34184 11.028291 -11.302406 -2.372632 -1.384266 -14.238581 -6.320124 -0.625436 -26.924191 -3.827603 -4.304665 -49.962883 -3.061944 -13.708526 -7.363475 -3.720941 18.14115 -14.052739 -3.242676 9e-06 -18.78727 -4e-06 -0.429714 -8.456045 2.555504 -1e-06 -0.0 -2e-06 -15.923536 -20.094482 -5.473586 30.41921 -7.190825 1.735924 4e-06 -8.162925 -0.0 -1.861901 -22.861469 -6.167943 -2e-06 -2e-06 -3e-06 161.661575 -1.84757 8.935519 37.127285 -0.200312 0.413122 -89.560799 -3.171907 -5.642034 -5.224655 1.573712 2.086612 -1.0 -0.0 0.0 -19.001223 0.738761 15.722444 34.05468 -0.362502 0.786384 -85.230988 5.626829 -4.927703 -4.992601 0.842116 1.786157 -1.000003 -1e-06 0.0 
0.0 0.0 0.0 0.0 -0.0 0.0 0.891021 97.152367 3.814921 87.778419 -1.880142 85.181679 17.352541 0.294412 -0.079505 -3.540145 -0.486324 -1.12236 30.127865 0.84825 -3.463795 29.152884 2.086426 3.260971 -2.493547 -0.923338 -0.550474 -53.402409 -0.812336 -0.113474 4e-06 0.0 0.0 0.12981 -0.103751 0.349429 0.476094 -0.22483 0.419684 0.505171 0.012533 0.270327 7.570407 -67.915642 -3.395207 95.840721 -41.211895 -100.108742 149.024521 -4.049125 0.730304 15.231616 0.389793 -4.205904 17.636635 -26.322744 52.411213 -19.466665 -14.395606 29.410398 -2e-06 -8.774822 -4e-06 15.232876 -17.096834 6.412531 -0.609776 -1.795655 -3.889331 -4.807088 -11.04681 -2.937846 6e-06 -20.976021 -1e-06 -5.019969 -25.03356 -4.031882 5e-06 0.0 -2e-06 -10.634537 -5.686973 -3.565588 10.573277 -17.922951 -3.1139 1e-06 -13.821211 0.0 -0.501777 -31.181505 -4.027013 -11.773221 -59.484379 7.66611 -13.982717 -7.150199 -2.875044 13.772731 -8.401495 -3.218242 0.347735 -34.211555 0.771658 -0.963028 -17.73337 2.621022 -0.0 -1e-06 0.0 -17.346422 -20.095221 -4.201784 21.757561 -1.638376 3.866428 1e-06 -6.338824 0.0 -1.69759 -22.591745 -6.194004 0.0 -5e-06 -4e-06 165.844055 -76.638565 21.666279 106.50193 -37.605919 -61.720371 142.323242 -0.352698 -0.179021 11.272861 -2.11744 -13.674954 22.182112 -20.375889 49.933315 -16.701817 -16.74353 28.476532 -2e-06 -12.690601 -2e-06 16.611216 -16.618645 2.530105 -0.105919 -1.513856 -4.275882 -5.03904 -5.612872 -2.953556 4e-06 -11.020525 -5e-06 -6.111294 -15.895334 -3.840473 -3e-06 -0.0 1e-06 -10.283369 -5.680288 -4.341836 11.028294 -11.302406 -2.372633 -1.384265 -14.238581 -6.320123 -0.625438 -26.924187 -3.827603 -4.286804 -49.811314 -3.117486 -13.708524 -7.363477 -3.720942 18.14115 -14.052739 -3.242675 8e-06 -18.78727 -4e-06 -0.42971 -8.456045 2.555502 -0.0 0.0 0.0 -15.923536 -20.094484 -5.473584 30.419214 -7.190823 1.735924 3e-06 -8.162926 -3e-06 -1.861903 -22.861469 -6.167944 -2e-06 -3e-06 -2e-06 162.153046 -1.785585 9.585848 36.426792 -0.190392 0.403393 -89.253952 -3.184261 -5.487431 -5.433521 1.568076 2.077595 -0.999999 -0.0 0.0 -18.266258 0.562243 15.170099 33.238949 -0.346772 0.733895 -84.861328 5.411213 -4.920519 -5.102529 0.81916 1.771521 -1.000002 -1e-06 0.0 
0.0 0.0 0.0 0.0 -0.0 0.0 0.974141 97.340706 4.066411 87.700241 -2.242639 86.109444 17.358789 0.199058 -0.086531 -3.66538 -0.460367 -1.010322 29.386005 0.69419 -3.299575 26.357895 3.760775 3.268355 -2.433297 -1.08369 -0.581589 -55.0602 -0.716599 -0.59198 6e-06 0.0 0.0 0.149508 -0.062625 0.323727 0.441179 -0.18704 0.36765 0.478444 0.057495 0.269593 9.111946 -66.647659 -5.631963 94.081291 -40.969101 -99.775291 148.758865 -3.800993 0.750659 13.614684 -0.733558 -5.040383 17.636631 -26.322731 52.411186 -19.466656 -14.395597 29.410381 1e-06 -8.774819 -5e-06 15.089551 -17.091427 6.386191 -0.609777 -1.795655 -3.88933 -4.807089 -11.046811 -2.937848 4e-06 -20.976019 1e-06 -5.019973 -25.03356 -4.03188 5e-06 1e-06 -1e-06 -10.634535 -5.68697 -3.565588 10.573272 -17.922951 -3.113899 0.0 -13.821211 1e-06 -0.50178 -31.181505 -4.027015 -11.718497 -59.2896 7.650574 -13.982716 -7.150198 -2.875041 13.772727 -8.401491 -3.218241 0.347728 -34.211555 0.771656 -0.96303 -17.73337 2.621019 -1e-06 0.0 -0.0 -17.346418 -20.095221 -4.201779 21.757557 -1.638373 3.866427 1e-06 -6.338824 2e-06 -1.697589 -22.591747 -6.194008 0.0 -5e-06 -2e-06 167.437241 -75.085701 18.614483 100.018829 -36.77087 -61.674793 143.809769 -0.435551 -0.015349 13.895119 2.340245 -15.645351 22.182121 -20.375898 49.933323 -16.701815 -16.74353 28.476534 -3e-06 -12.690605 -2e-06 16.511654 -16.589464 2.434743 -0.105921 -1.513857 -4.275881 -5.03904 -5.612872 -2.953557 4e-06 -11.020528 -2e-06 -6.111302 -15.895338 -3.840472 -2e-06 -0.0 -0.0 -10.283373 -5.680289 -4.341839 11.028296 -11.302406 -2.372632 -1.384268 -14.238585 -6.320123 -0.625438 -26.924194 -3.827601 -4.263293 -49.590824 -3.198709 -13.708527 -7.363479 -3.720942 18.141153 -14.05274 -3.242675 7e-06 -18.787271 -1e-06 -0.429712 -8.456046 2.555506 -0.0 2e-06 -0.0 -15.923538 -20.094486 -5.473585 30.419218 -7.190827 1.735928 3e-06 -8.162927 -2e-06 -1.861901 -22.861473 -6.167944 1e-06 -2e-06 -1e-06 162.052338 -1.588441 10.418802 35.826038 -0.194876 0.400654 -88.855759 -3.278408 -5.324857 -5.537368 1.551689 2.071219 -0.999999 0.0 0.0 -18.004478 0.329994 14.777572 32.639423 -0.35216 0.67806 -84.571411 4.964392 -5.100087 -5.110332 0.793237 1.76134 -1.000001 -0.0 -0.0 
0.0 0.0 0.0 0.0 -0.0 0.0 1.052072 97.423851 4.115692 87.667023 -2.944493 87.146355 17.563349 0.117292 -0.121624 -3.661879 -0.41027 -0.907679 28.650486 0.637731 -3.062571 22.557983 5.55168 3.214849 -2.41785 -1.261541 -0.741475 -57.361187 -0.838889 -1.217784 6e-06 -0.0 -0.0 0.16533 -0.017983 0.264277 0.39752 -0.15368 0.280767 0.445108 0.113358 0.236684 10.444825 -65.360374 -7.841074 91.745705 -40.230888 -99.46669 149.04541 -3.260498 0.694577 12.175026 -1.311054 -6.458582 17.636637 -26.322729 52.411194 -19.466663 -14.395597 29.410393 2e-06 -8.774822 -4e-06 14.916239 -17.090443 6.389479 -0.609778 -1.795655 -3.889328 -4.80709 -11.046814 -2.937851 5e-06 -20.976019 -1e-06 -5.019969 -25.03356 -4.031883 7e-06 1e-06 1e-06 -10.634537 -5.686974 -3.565588 10.573275 -17.922955 -3.113901 3e-06 -13.821211 0.0 -0.501778 -31.181507 -4.027016 -11.631989 -58.976158 7.520885 -13.982716 -7.150199 -2.875044 13.77273 -8.401495 -3.21824 0.347733 -34.211555 0.771655 -0.96303 -17.73337 2.621021 0.0 -0.0 1e-06 -17.346422 -20.095221 -4.201784 21.757563 -1.638374 3.866431 1e-06 -6.338824 1e-06 -1.69759 -22.591745 -6.194008 2e-06 -3e-06 -2e-06 168.736053 -73.897385 15.692801 92.96006 -35.471188 -61.924164 145.115204 -0.335128 0.123204 16.26726 7.710666 -17.916437 22.182123 -20.375895 49.933323 -16.701817 -16.74353 28.476534 -3e-06 -12.690605 -2e-06 16.396208 -16.677504 2.307755 -0.10592 -1.513857 -4.275881 -5.039044 -5.612873 -2.953559 7e-06 -11.020525 -4e-06 -6.1113 -15.895334 -3.840472 -3e-06 -0.0 0.0 -10.283373 -5.680288 -4.341839 11.028298 -11.302406 -2.372631 -1.38427 -14.238581 -6.320123 -0.625437 -26.924191 -3.827604 -4.213043 -49.287746 -3.34378 -13.708526 -7.363478 -3.720942 18.141155 -14.052739 -3.242671 7e-06 -18.787273 -1e-06 -0.42971 -8.456045 2.555501 0.0 -1e-06 1e-06 -15.923538 -20.094486 -5.473588 30.419222 -7.190828 1.735929 2e-06 -8.162925 -1e-06 -1.861901 -22.861469 -6.167943 -2e-06 -4e-06 1e-06 161.243866 -1.320172 11.296041 35.627068 -0.217775 0.443919 -88.598778 -3.217188 -5.262166 -5.438908 1.533894 2.074768 -0.999998 -0.0 0.0 -18.473984 0.20922 14.569798 32.463184 -0.380014 0.626741 -84.454247 4.194892 -5.409532 -5.034482 0.768291 1.757466 -1.000002 -0.0 0.0 
